arm26_states
version=1
nRows=31
nColumns=17
inDegrees=yes

# SIMM Motion File Header:
name arm26_states
datacolumns 17
datarows 31
otherdata 1
range 0.65471044 0.74504477
endheader
time	r_shoulder_elev	r_elbow_flex	r_shoulder_elev_u	r_elbow_flex_u	TRIlong.activation	TRIlong.fiber_length	TRIlat.activation	TRIlat.fiber_length	TRImed.activation	TRImed.fiber_length	BIClong.activation	BIClong.fiber_length	BICshort.activation	BICshort.fiber_length	BRA.activation	BRA.fiber_length
      0.65471044	    -16.60261253	    101.29748820	    -35.57841026	     48.57799846	      0.01000572	      0.17106542	      0.08292568	      0.10739474	      0.07986008	      0.10243065	      0.25305995	      0.09328497	      0.01156581	      0.09263090	      0.01008967	      0.06414685
      0.65537838	    -16.62629684	    101.33006935	    -35.33922052	     48.98016830	      0.01000572	      0.16972330	      0.08313270	      0.10740511	      0.08006169	      0.10244105	      0.25311212	      0.09326263	      0.01156486	      0.09261000	      0.01009056	      0.06413310
      0.65686118	    -16.67830287	    101.40336571	    -34.80534257	     49.88270776	      0.01000571	      0.16701200	      0.08358767	      0.10742796	      0.08050548	      0.10246396	      0.25322812	      0.09321369	      0.01156172	      0.09256427	      0.01009185	      0.06410274
      0.65760114	    -16.70395815	    101.44044384	    -34.53677732	     50.33378994	      0.01000570	      0.16577609	      0.08381255	      0.10743932	      0.08072517	      0.10247536	      0.25328610	      0.09318952	      0.01155962	      0.09254167	      0.01009218	      0.06408758
      0.65824681	    -16.72618123	    101.47306918	    -34.30372493	     50.71966703	      0.01000570	      0.16476338	      0.08400771	      0.10744925	      0.08091598	      0.10248532	      0.25333672	      0.09316852	      0.01155752	      0.09252200	      0.01009232	      0.06407430
      0.65889247	    -16.74826637	    101.50591400	    -34.12001275	     50.99020888	      0.01000569	      0.16399900	      0.08420197	      0.10745920	      0.08110603	      0.10249531	      0.25338722	      0.09314759	      0.01155515	      0.09250234	      0.01009233	      0.06406096
      0.65964083	    -16.77375240	    101.54411721	    -34.00754138	     51.07270876	      0.01000569	      0.16356022	      0.08442613	      0.10747076	      0.08132539	      0.10250692	      0.25344527	      0.09312339	      0.01155205	      0.09247954	      0.01009230	      0.06404543
      0.66038918	    -16.79918324	    101.58231453	    -33.96327869	     50.99494971	      0.01000568	      0.16342021	      0.08464929	      0.10748237	      0.08154385	      0.10251857	      0.25350285	      0.09309925	      0.01154858	      0.09245672	      0.01009224	      0.06402983
      0.66113754	    -16.82459126	    101.62042754	    -33.94217785	     50.85720449	      0.01000567	      0.16337816	      0.08487154	      0.10749400	      0.08176146	      0.10253024	      0.25355998	      0.09307515	      0.01154475	      0.09243389	      0.01009214	      0.06401419
      0.66306668	    -16.89003739	    101.71812550	    -33.90942610	     50.41818222	      0.01000566	      0.16334618	      0.08544065	      0.10752404	      0.08231897	      0.10256041	      0.25370541	      0.09301330	      0.01153324	      0.09237510	      0.01009174	      0.06397383
      0.66499581	    -16.95542313	    101.81492574	    -33.87695700	     49.93361759	      0.01000564	      0.16333696	      0.08600507	      0.10755407	      0.08287217	      0.10259056	      0.25384857	      0.09295188	      0.01151947	      0.09231658	      0.01009113	      0.06393363
      0.66849780	    -17.07392781	    101.98818451	    -33.79623917	     49.00866426	      0.01000560	      0.16332573	      0.08702200	      0.10760822	      0.08386980	      0.10264490	      0.25410241	      0.09284168	      0.01148978	      0.09221163	      0.01008955	      0.06386142
      0.67320905	    -17.23280725	    102.21604246	    -33.64268575	     47.71280500	      0.01000555	      0.16331221	      0.08839699	      0.10767983	      0.08522256	      0.10271671	      0.25441980	      0.09269660	      0.01144964	      0.09207397	      0.01008690	      0.06376625
      0.67723922	    -17.36805846	    102.40606319	    -33.47003666	     46.58492091	      0.01000550	      0.16329633	      0.08957946	      0.10773965	      0.08638801	      0.10277666	      0.25467589	      0.09257585	      0.01141511	      0.09195991	      0.01008427	      0.06368677
      0.68126939	    -17.50254386	    102.59150635	    -33.26416770	     45.43961349	      0.01000546	      0.16328369	      0.09077059	      0.10779802	      0.08756111	      0.10283515	      0.25492345	      0.09245834	      0.01137639	      0.09184955	      0.01008155	      0.06360914
      0.68529956	    -17.63612735	    102.77232484	    -33.02104094	     44.29407959	      0.01000542	      0.16326541	      0.09196914	      0.10785490	      0.08874195	      0.10289215	      0.25516579	      0.09234422	      0.01133357	      0.09174302	      0.01007880	      0.06353337
      0.68932973	    -17.76866389	    102.94851813	    -32.74633469	     43.14117888	      0.01000567	      0.16325147	      0.09318326	      0.10791025	      0.08994836	      0.10294759	      0.25540799	      0.09223356	      0.01128766	      0.09164036	      0.01007626	      0.06345948
      0.69335990	    -17.90002186	    103.12007130	    -32.43428326	     41.99572794	      0.01000616	      0.16323090	      0.09440074	      0.10796404	      0.09116389	      0.10300143	      0.25565093	      0.09212638	      0.01123947	      0.09154155	      0.01007393	      0.06338747
      0.69739007	    -18.03005637	    103.28700739	    -32.09185181	     40.84611052	      0.01000621	      0.16321617	      0.09554652	      0.10801645	      0.09229463	      0.10305391	      0.25589900	      0.09202268	      0.01119410	      0.09144648	      0.01007167	      0.06331735
      0.70142024	    -18.15864171	    103.44933513	    -31.71296459	     39.71536088	      0.01000610	      0.16319338	      0.09662996	      0.10806763	      0.09335220	      0.10310520	      0.25615295	      0.09192242	      0.01115191	      0.09135500	      0.01006947	      0.06324910
      0.70503186	    -18.27252929	    103.59095248	    -31.35080151	     38.70935465	      0.01000599	      0.16317933	      0.09754729	      0.10811248	      0.09424669	      0.10315017	      0.25639865	      0.09183543	      0.01111360	      0.09127602	      0.01006760	      0.06318954
      0.70864349	    -18.38506255	    103.72897763	    -30.96228734	     37.72887021	      0.01000589	      0.16315982	      0.09842565	      0.10815637	      0.09510426	      0.10319417	      0.25666016	      0.09175108	      0.01107412	      0.09119982	      0.01006583	      0.06313145
      0.71225511	    -18.49615331	    103.86349988	    -30.55261723	     36.76900254	      0.01000579	      0.16314279	      0.09928942	      0.10819926	      0.09595183	      0.10323717	      0.25694236	      0.09166928	      0.01103570	      0.09112634	      0.01006406	      0.06307482
      0.71728417	    -18.64829378	    104.04514330	    -29.94367994	     35.47936767	      0.01000566	      0.16311534	      0.10049097	      0.10825722	      0.09713925	      0.10329522	      0.25737010	      0.09155945	      0.01098649	      0.09102827	      0.01006148	      0.06299833
      0.72095283	    -18.75729292	    104.17362273	    -29.47497878	     34.56571470	      0.01000558	      0.16309917	      0.10138355	      0.10829815	      0.09802240	      0.10333620	      0.25771412	      0.09148219	      0.01095394	      0.09095967	      0.01005977	      0.06294421
      0.72462148	    -18.86452869	    104.29880307	    -28.98153172	     33.68228715	      0.01000550	      0.16307880	      0.10229639	      0.10833791	      0.09892411	      0.10337601	      0.25808615	      0.09140721	      0.01092430	      0.09089340	      0.01005836	      0.06289146
      0.72911155	    -18.99324807	    104.44766482	    -28.34876680	     32.62843230	      0.01000541	      0.16305769	      0.10344367	      0.10838499	      0.10005469	      0.10342316	      0.25858752	      0.09131836	      0.01088896	      0.09081531	      0.01005687	      0.06282872
      0.73309485	    -19.10500064	    104.57582276	    -27.75636920	     31.72479617	      0.01000534	      0.16303475	      0.10449012	      0.10842532	      0.10108313	      0.10346357	      0.25907869	      0.09124205	      0.01085582	      0.09074872	      0.01005560	      0.06277469
      0.73707816	    -19.21434177	    104.70042064	    -27.13962741	     30.83680670	      0.01000528	      0.16301744	      0.10557025	      0.10846433	      0.10214552	      0.10350266	      0.25961207	      0.09116797	      0.01082410	      0.09068454	      0.01005444	      0.06272214
      0.74106146	    -19.32116879	    104.82152512	    -26.49229668	     29.97408573	      0.01000522	      0.16299487	      0.10668969	      0.10850202	      0.10324986	      0.10354043	      0.26018767	      0.09109597	      0.01079717	      0.09062255	      0.01005346	      0.06267104
      0.74504477	    -19.42536466	    104.93922125	    -25.82023112	     29.12131185	      0.01000516	      0.16297832	      0.10784307	      0.10853840	      0.10439132	      0.10357690	      0.26080432	      0.09102594	      0.01077416	      0.09056260	      0.01005253	      0.06262137
